<svg width="143" height="217" viewBox="0 0 143 217" fill="none" xmlns="http://www.w3.org/2000/svg">
<path fill-rule="evenodd" clip-rule="evenodd" d="M127.219 246.248C183.904 214.263 217.166 74.7183 171.217 38.3038C125.268 1.8884 116.93 94.0296 69.4478 126.602C21.9658 159.174 -7.66951 184.485 3.1476 231.549C13.9653 278.612 70.5335 278.233 127.219 246.248Z" fill="#6259FF"/>
<path fill-rule="evenodd" clip-rule="evenodd" d="M164.013 20.4856C146.09 -30.6708 73.0453 -57.7838 55.2976 -14.8178C37.5492 28.1491 85.4533 33.5717 103.458 76.2831C121.463 118.994 135.28 145.532 159.386 134.492C183.492 123.451 181.935 71.642 164.013 20.4856Z" fill="#F9818E"/>
<path d="M80.315 77.637L73.4661 68.6946M83.7908 40.4105L77.134 50.9539M92.9239 58.8745L102.303 64.6984" stroke="white" stroke-width="5" stroke-linecap="round" stroke-linejoin="bevel"/>
<path d="M129.621 216.743C129.621 185.547 110.609 160.257 87.1563 160.257C63.7036 160.257 44.6915 185.547 44.6915 216.743C44.6915 247.939 63.7036 273.228 87.1563 273.228C110.609 273.228 129.621 247.939 129.621 216.743Z" fill="#FFAF7E"/>
</svg>
